<svg width="276" height="34" viewBox="0 0 276 34" fill="none" xmlns="http://www.w3.org/2000/svg">
<g clip-path="url(#clip0_41_6129)">
<path d="M59.7462 16.8096C59.745 17.9597 59.626 19.1066 59.3909 20.2328C59.0206 22.003 58.3638 23.7018 57.446 25.2631C57.3524 25.421 57.2589 25.579 57.1561 25.7276C55.6392 28.1446 53.5276 30.1378 51.0204 31.5193C48.5132 32.9008 45.6931 33.6251 42.8261 33.6238H16.9153C14.6934 33.6238 12.4931 33.189 10.4403 32.3442C8.38745 31.4995 6.5222 30.2613 4.95102 28.7004C3.37985 27.1395 2.13352 25.2864 1.28321 23.247C0.432894 21.2075 -0.00476074 19.0217 -0.00476074 16.8142C-0.00476074 14.6068 0.432894 12.4209 1.28321 10.3815C2.13352 8.34205 3.37985 6.48896 4.95102 4.92805C6.5222 3.36714 8.38745 2.12896 10.4403 1.2842C12.4931 0.439438 14.6934 0.00464928 16.9153 0.00464934H25.9528V7.90082H16.9153C14.5333 7.90082 12.2489 8.84088 10.5646 10.5142C8.88023 12.1875 7.93398 14.4571 7.93398 16.8235C7.93398 19.1899 8.88023 21.4595 10.5646 23.1328C12.2489 24.8061 14.5333 25.7462 16.9153 25.7462H42.8215C44.7647 25.7463 46.6555 25.1195 48.2094 23.9603C49.7633 22.801 50.8964 21.1718 51.4381 19.3178C51.8458 17.9127 51.9036 16.4303 51.6064 14.9981C51.1854 12.9926 50.0823 11.1923 48.4824 9.89982C46.8825 8.60731 44.8835 7.90142 42.8215 7.90082H37.8095V21.8631H29.8614V0H42.8168C45.6823 0.00608804 48.4996 0.733505 51.0055 2.11433C53.5115 3.49516 55.6243 5.48436 57.1467 7.89618C57.3587 8.22441 57.555 8.55884 57.7358 8.89946C58.6612 10.6115 59.2783 12.4711 59.5592 14.3943C59.6806 15.1938 59.7431 16.001 59.7462 16.8096Z" fill="white"/>
<path d="M119.133 16.8326V33.5957H111.185V16.8326C111.185 14.4661 110.239 12.1966 108.554 10.5233C106.87 8.84993 104.586 7.90986 102.204 7.90986C99.8215 7.90986 97.5371 8.84993 95.8528 10.5233C94.1684 12.1966 93.2222 14.4661 93.2222 16.8326V33.5957H85.2741V16.8326C85.2741 14.4661 84.3278 12.1966 82.6435 10.5233C80.9592 8.84993 78.6747 7.90986 76.2927 7.90986C73.9107 7.90986 71.6263 8.84993 69.942 10.5233C68.2576 12.1966 67.3114 14.4661 67.3114 16.8326V33.5957H59.3633V16.8326C59.3616 13.3835 60.4282 10.0175 62.4183 7.19132C64.4084 4.3652 67.2257 2.21586 70.4876 1.03505C73.7495 -0.145753 77.2982 -0.300833 80.6519 0.590857C84.0056 1.48255 87.0019 3.37783 89.2341 6.01943C91.4675 3.38045 94.4638 1.48759 97.8166 0.597476C101.169 -0.292634 104.717 -0.136943 107.978 1.04345C111.238 2.22383 114.055 4.37183 116.045 7.1962C118.036 10.0206 119.104 13.3847 119.105 16.8326H119.133Z" fill="white"/>
<path d="M59.5163 6.63716L49.2512 16.8351L59.5163 27.0331L69.7813 16.8351L59.5163 6.63716Z" fill="#E7004C"/>
<path d="M137.848 15.6533H135.174V17.841H137.848V15.6533Z" fill="white"/>
<path d="M141.803 11.6675H131.653C131.333 11.68 131.015 11.6262 130.718 11.5096C130.484 11.4102 130.282 11.2497 130.133 11.0451C129.984 10.8168 129.882 10.5609 129.834 10.2927C129.775 9.9631 129.747 9.62878 129.75 9.29403V8.30003H127.394V9.55413C127.382 10.2037 127.474 10.8511 127.665 11.4724C127.821 11.9726 128.086 12.4326 128.441 12.8194C128.765 13.1722 129.169 13.4443 129.619 13.6137C130.093 13.7948 130.598 13.8846 131.106 13.8784H144.477V5.90332H141.803V11.6675Z" fill="white"/>
<path d="M166.054 0.49707H163.38V2.68478H166.054V0.49707Z" fill="white"/>
<path d="M194.429 11.6678H188.304C188.092 11.6696 187.881 11.6478 187.673 11.6027C187.476 11.5662 187.287 11.4938 187.117 11.3891C186.953 11.2898 186.814 11.1548 186.71 10.9943C186.597 10.8151 186.542 10.6062 186.551 10.3951V9.87488C186.566 9.17876 186.434 8.48726 186.163 7.8451C185.926 7.29124 185.567 6.79751 185.111 6.40056C184.648 6.01318 184.113 5.72109 183.536 5.54127C182.259 5.15115 180.894 5.15115 179.618 5.54127C179.041 5.72015 178.507 6.01238 178.047 6.40056C177.589 6.79603 177.227 7.29006 176.99 7.8451C176.721 8.48764 176.59 9.1791 176.607 9.87488V10.3951C176.614 10.6067 176.557 10.8156 176.443 10.9943C176.341 11.1546 176.204 11.2896 176.041 11.3891C175.867 11.4939 175.675 11.5663 175.475 11.6027C175.271 11.6466 175.062 11.6684 174.853 11.6678H170.912H170.131C169.837 11.6678 169.542 11.6678 169.257 11.6678H168.598V11.5749C169.024 11.213 169.364 10.7624 169.596 10.2551C169.827 9.74778 169.943 9.19616 169.935 8.63936C169.947 8.11071 169.853 7.58493 169.659 7.09264C169.496 6.6895 169.238 6.33112 168.906 6.04756C168.565 5.7679 168.166 5.56647 167.738 5.45766C167.25 5.32914 166.746 5.26664 166.241 5.27187H158.579V5.6063C158.955 5.98539 159.259 6.42919 159.476 6.91614C159.733 7.46423 159.976 8.03553 160.21 8.62078C160.444 9.20602 160.678 9.76804 160.926 10.3022C161.125 10.7732 161.408 11.2044 161.762 11.5749V11.6492H153.768C153.534 11.6486 153.301 11.6299 153.071 11.5935C152.842 11.5597 152.622 11.4841 152.421 11.3705C152.227 11.2585 152.066 11.0984 151.954 10.906C151.822 10.6658 151.759 10.3943 151.771 10.1211V5.88963H149.078V13.5629C149.116 14.2738 149.007 14.9848 148.76 15.653C148.665 15.8688 148.506 16.0501 148.303 16.1723C148.101 16.2946 147.865 16.3517 147.629 16.3358C147.433 16.3357 147.238 16.3202 147.044 16.2894C146.869 16.2574 146.701 16.1894 146.554 16.0896V18.0172C146.812 18.1245 147.082 18.2009 147.358 18.2448C147.646 18.2947 147.939 18.3196 148.232 18.3191C148.816 18.3394 149.397 18.22 149.924 17.9708C150.368 17.7508 150.743 17.4153 151.009 17C151.297 16.5408 151.495 16.0319 151.594 15.4997C151.719 14.8619 151.779 14.2128 151.771 13.5629V12.685H151.846C151.922 12.8691 152.031 13.0376 152.169 13.182C152.305 13.3257 152.463 13.4478 152.636 13.5443C152.815 13.6452 153.005 13.7247 153.202 13.7812C153.381 13.8348 153.567 13.8629 153.754 13.8648H174.97C175.463 13.8639 175.947 13.7341 176.373 13.4885C176.778 13.2717 177.117 12.9509 177.355 12.5596C177.787 13.1852 178.395 13.67 179.103 13.953C180.681 14.5537 182.426 14.5537 184.003 13.953C184.714 13.6715 185.324 13.1865 185.756 12.5596C185.991 12.9519 186.329 13.2731 186.733 13.4885C187.16 13.7341 187.643 13.8639 188.136 13.8648H197.103V0.497009H194.429V11.6678ZM167.078 9.62871C166.963 9.99687 166.796 10.3471 166.583 10.6691C166.373 10.9799 166.106 11.2492 165.797 11.4634C165.498 11.674 165.14 11.786 164.773 11.7839C164.52 11.7828 164.277 11.6846 164.095 11.5098C163.878 11.3112 163.696 11.0771 163.558 10.8178C163.392 10.5196 163.25 10.209 163.132 9.88881C163.006 9.54974 162.885 9.21995 162.768 8.89482C162.651 8.56968 162.529 8.27707 162.417 8.00767C162.335 7.78718 162.208 7.5862 162.043 7.41777H165.732C166.11 7.40794 166.482 7.50456 166.807 7.69646C166.958 7.78816 167.081 7.91855 167.163 8.07387C167.245 8.22919 167.284 8.40369 167.275 8.57897C167.265 8.93695 167.199 9.29119 167.078 9.62871ZM183.62 10.8364C183.536 11.1251 183.396 11.3948 183.208 11.6306C183.025 11.8568 182.794 12.0393 182.53 12.1648C182.237 12.2996 181.918 12.3679 181.595 12.3645C181.272 12.369 180.953 12.3007 180.66 12.1648C180.396 12.0405 180.164 11.8578 179.982 11.6306C179.793 11.3952 179.652 11.1254 179.566 10.8364C179.379 10.1946 179.379 9.51336 179.566 8.8716C179.653 8.58033 179.794 8.3078 179.982 8.06804C180.162 7.83641 180.394 7.65022 180.66 7.52461C180.953 7.39029 181.273 7.32359 181.595 7.32952C181.918 7.3247 182.237 7.39135 182.53 7.52461C182.795 7.65195 183.027 7.83784 183.208 8.06804C183.395 8.30804 183.534 8.58059 183.62 8.8716C183.807 9.51336 183.807 10.1946 183.62 10.8364Z" fill="white"/>
<path d="M202.793 0.497009H200.119V13.8787H202.793V0.497009Z" fill="white"/>
<path d="M226.904 0.49707H224.229V2.68478H226.904V0.49707Z" fill="white"/>
<path d="M228.91 5.82876C228.453 5.43552 227.917 5.14268 227.339 4.96947C226.703 4.77917 226.043 4.68522 225.38 4.69077C224.718 4.68374 224.059 4.78416 223.43 4.98805C222.856 5.17591 222.326 5.47773 221.873 5.8752C221.429 6.27558 221.079 6.76894 220.849 7.31974C220.591 7.94556 220.465 8.61755 220.48 9.29378C220.481 9.73964 220.589 10.1789 220.793 10.5758C220.973 10.9589 221.226 11.3042 221.536 11.593V11.6673H214.776C214.457 11.6801 214.138 11.6264 213.841 11.5094C213.607 11.41 213.405 11.2494 213.256 11.0449C213.105 10.8176 213.003 10.5612 212.957 10.2924C212.898 9.96286 212.87 9.62854 212.873 9.29378V8.29979H210.498V9.55389C210.487 10.2035 210.578 10.8508 210.769 11.4722C210.925 11.9724 211.19 12.4323 211.545 12.8192C211.869 13.1708 212.271 13.4428 212.719 13.6134C213.195 13.7941 213.701 13.884 214.21 13.8782H225.361C226.025 13.8846 226.686 13.789 227.32 13.5949C227.897 13.423 228.432 13.1335 228.891 12.7449C229.348 12.3537 229.709 11.8645 229.947 11.3143C230.465 10.0164 230.465 8.57121 229.947 7.27329C229.712 6.72206 229.358 6.22894 228.91 5.82876ZM227.423 10.2506C227.336 10.5376 227.194 10.8056 227.007 11.0402C226.823 11.2647 226.592 11.4456 226.329 11.5697C226.037 11.7077 225.717 11.7761 225.394 11.7695C225.085 11.7909 224.775 11.7394 224.49 11.6191C224.204 11.4988 223.952 11.3132 223.753 11.0774C223.372 10.5568 223.18 9.92284 223.21 9.27985C223.208 8.94655 223.255 8.61474 223.351 8.29515C223.436 8.00414 223.576 7.7316 223.762 7.49159C223.943 7.26139 224.175 7.0755 224.44 6.94816C224.733 6.8149 225.053 6.74825 225.375 6.75307C225.697 6.74714 226.017 6.81384 226.31 6.94816C226.576 7.07377 226.808 7.25996 226.988 7.49159C227.176 7.73135 227.317 8.00389 227.404 8.29515C227.499 8.61474 227.547 8.94655 227.544 9.27985C227.553 9.60768 227.512 9.93497 227.423 10.2506Z" fill="white"/>
<path d="M275.542 7.27329C275.301 6.72029 274.941 6.22702 274.485 5.82876C274.029 5.43552 273.493 5.14268 272.915 4.96947C272.279 4.77917 271.619 4.68522 270.956 4.69077C270.294 4.68374 269.635 4.78416 269.006 4.98805C268.433 5.17492 267.904 5.47688 267.454 5.8752C267.008 6.27541 266.657 6.76872 266.425 7.31974C266.169 7.94623 266.044 8.61774 266.056 9.29378C266.059 9.73937 266.167 10.1781 266.369 10.5758C266.549 10.9589 266.801 11.3042 267.112 11.593V11.6673H261.61C261.374 11.6678 261.14 11.6365 260.913 11.5744C260.681 11.5168 260.461 11.4193 260.263 11.2864C260.067 11.1515 259.906 10.9714 259.796 10.7615C259.67 10.5093 259.609 10.23 259.618 9.9487V9.29378C259.636 8.63044 259.493 7.97246 259.202 7.37547C258.938 6.85878 258.553 6.41271 258.08 6.07493C257.583 5.72248 257.02 5.47147 256.425 5.33641C255.762 5.17524 255.082 5.09568 254.4 5.09952C253.702 5.09842 253.009 5.22599 252.357 5.47575C251.695 5.72701 251.066 6.05936 250.487 6.4651C249.9 6.88065 249.35 7.34695 248.846 7.85854C248.349 8.34859 247.881 8.86657 247.443 9.4099H247.411V6.43258H244.848V11.6719H239.266C239.033 11.6713 238.8 11.6527 238.569 11.6162C238.341 11.5824 238.12 11.5068 237.92 11.3932C237.726 11.2809 237.565 11.1209 237.452 10.9288C237.324 10.6872 237.263 10.4164 237.274 10.1438V5.91236H234.581V13.5856C234.62 14.2969 234.51 15.0086 234.259 15.6757C234.165 15.8915 234.007 16.0731 233.805 16.1955C233.603 16.3178 233.368 16.3748 233.132 16.3585C232.936 16.3586 232.741 16.3431 232.548 16.3121C232.372 16.2809 232.204 16.2129 232.057 16.1124V18.04C232.313 18.1466 232.582 18.223 232.856 18.2676C233.145 18.3173 233.437 18.3421 233.73 18.3419C234.316 18.3622 234.898 18.2427 235.428 17.9935C235.871 17.7735 236.246 17.438 236.512 17.0227C236.796 16.5616 236.994 16.0534 237.097 15.5225C237.22 14.8843 237.28 14.2355 237.274 13.5856V12.7077H237.349C237.423 12.8927 237.533 13.0616 237.672 13.2047C237.807 13.3494 237.965 13.4717 238.139 13.567C238.318 13.6671 238.508 13.7466 238.705 13.8039C238.886 13.8572 239.073 13.8853 239.261 13.8875H259.136C259.268 13.6986 259.369 13.4901 259.435 13.2697C259.499 13.0857 259.55 12.898 259.59 12.7077H259.665C259.738 12.8939 259.85 13.063 259.992 13.2047C260.137 13.3487 260.302 13.4708 260.483 13.567C260.661 13.6679 260.851 13.7474 261.048 13.8039C261.229 13.8575 261.416 13.8857 261.605 13.8875H270.956C271.619 13.8939 272.28 13.7983 272.915 13.6042C273.492 13.4323 274.027 13.1428 274.485 12.7542C274.942 12.363 275.304 11.8738 275.542 11.3236C276.06 10.0256 276.06 8.58049 275.542 7.28257V7.27329ZM256.939 11.6673H248.084C248.084 11.6208 248.205 11.4815 248.374 11.2492C248.542 11.017 248.771 10.7383 249.056 10.4178C249.341 10.0973 249.664 9.74898 250.043 9.38668C250.429 9.01621 250.845 8.67756 251.286 8.37411C251.738 8.06354 252.224 7.80635 252.736 7.60771C253.247 7.40964 253.791 7.30881 254.339 7.31045C255.001 7.27763 255.659 7.4254 256.242 7.73777C256.71 8.02575 256.939 8.56454 256.939 9.34952V11.6673ZM272.999 10.2738C272.911 10.5598 272.772 10.8274 272.587 11.0635C272.402 11.288 272.169 11.4689 271.905 11.593C271.613 11.7309 271.293 11.7993 270.97 11.7927C270.661 11.8141 270.351 11.7626 270.065 11.6423C269.78 11.5221 269.528 11.3364 269.329 11.1006C268.95 10.5789 268.759 9.94573 268.786 9.30307C268.784 8.96976 268.831 8.63796 268.926 8.31837C269.014 8.0271 269.155 7.75457 269.343 7.51481C269.522 7.28318 269.755 7.09699 270.02 6.97138C270.32 6.8428 270.643 6.77647 270.97 6.77647C271.296 6.77647 271.619 6.8428 271.919 6.97138C272.186 7.09741 272.419 7.28346 272.601 7.51481C272.786 7.75594 272.925 8.02814 273.013 8.31837C273.108 8.63796 273.155 8.96976 273.153 9.30307C273.149 9.62476 273.097 9.94409 272.999 10.2506V10.2738Z" fill="white"/>
<path d="M127.394 28.9283V28.9004C127.38 28.2226 127.505 27.5491 127.761 26.9207C128.017 26.2923 128.399 25.722 128.883 25.2444C129.367 24.7667 129.944 24.3917 130.579 24.1419C131.213 23.8921 131.892 23.7728 132.574 23.7911C133.297 23.7564 134.019 23.8737 134.694 24.1355C135.368 24.3972 135.979 24.7974 136.487 25.31L135.085 26.9031C134.416 26.2183 133.505 25.8199 132.546 25.793C130.872 25.793 129.666 27.1865 129.666 28.8633V28.8911C129.666 30.5818 130.844 31.9939 132.546 31.9939C133.682 31.9939 134.374 31.5294 135.155 30.8373L136.557 32.2307C136.056 32.8107 135.43 33.2704 134.725 33.5753C134.019 33.8802 133.254 34.0223 132.485 33.9911C131.813 34.0012 131.146 33.877 130.524 33.6261C129.901 33.3752 129.336 33.0025 128.861 32.5303C128.386 32.0581 128.011 31.496 127.759 30.8772C127.507 30.2584 127.383 29.5957 127.394 28.9283Z" fill="white"/>
<path d="M138.877 23.9675H143.417C143.942 23.9351 144.469 24.0071 144.966 24.1794C145.463 24.3516 145.92 24.6207 146.311 24.9708C146.597 25.271 146.819 25.6249 146.965 26.0118C147.111 26.3986 147.178 26.8107 147.162 27.2236V27.2514C147.194 27.9228 147.003 28.586 146.619 29.1391C146.234 29.6921 145.678 30.1044 145.034 30.3124L147.461 33.8331H144.903L142.776 30.6886H141.06V33.8424H138.877V23.9675ZM143.272 28.761C144.338 28.761 144.946 28.199 144.946 27.3676V27.3397C144.946 26.4107 144.296 25.9462 143.23 25.9462H141.06V28.7796L143.272 28.761Z" fill="white"/>
<path d="M149.695 23.9672H157.176V25.8994H151.874V27.9014H156.549V29.8336H151.874V31.9052H157.265V33.8328H149.695V23.9672ZM154.31 20.9806L156.18 21.7841L154.254 23.1776H152.608L154.31 20.9806Z" fill="white"/>
<path d="M159.775 23.9668H163.651C166.774 23.9668 168.93 26.0941 168.93 28.8717V28.8996C168.93 31.6865 166.774 33.8324 163.651 33.8324H159.775V23.9668ZM163.651 31.863C164.048 31.8864 164.446 31.8263 164.818 31.6866C165.19 31.547 165.529 31.331 165.811 31.0526C166.093 30.7743 166.313 30.4399 166.457 30.0713C166.6 29.7027 166.664 29.3082 166.643 28.9135V28.8856C166.664 28.49 166.6 28.0945 166.457 27.7248C166.313 27.3551 166.094 27.0194 165.812 26.7392C165.53 26.4591 165.192 26.2408 164.82 26.0985C164.448 25.9562 164.05 25.893 163.651 25.913H161.963V31.863H163.651Z" fill="white"/>
<path d="M171.543 23.9668H173.726V33.8324H171.543V23.9668Z" fill="white"/>
<path d="M179.09 25.9687H176.069V23.9668H184.293V25.9687H181.273V33.8324H179.085L179.09 25.9687Z" fill="white"/>
<path d="M191.367 23.9668H195.238C198.361 23.9668 200.517 26.0941 200.517 28.8717V28.8996C200.517 31.6865 198.361 33.8324 195.238 33.8324H191.367V23.9668ZM195.238 31.863C195.636 31.8863 196.033 31.8262 196.406 31.6866C196.778 31.547 197.117 31.331 197.399 31.0528C197.682 30.7745 197.903 30.4402 198.047 30.0716C198.191 29.703 198.255 29.3084 198.235 28.9135V28.8856C198.255 28.4896 198.192 28.0937 198.048 27.7237C197.905 27.3536 197.685 27.0176 197.402 26.7374C197.12 26.4572 196.781 26.2391 196.408 26.097C196.036 25.955 195.637 25.8923 195.238 25.913H193.551V31.863H195.238Z" fill="white"/>
<path d="M202.878 29.6056V23.9668H205.061V29.5406C205.061 31.1477 205.87 31.9791 207.203 31.9791C208.535 31.9791 209.344 31.1755 209.344 29.6102V23.9668H211.532V29.5406C211.532 32.5272 209.844 33.9949 207.175 33.9949C204.505 33.9949 202.878 32.5086 202.878 29.6056Z" fill="white"/>
<path d="M219.152 23.9668H221.49L224.099 28.1471L226.712 23.9668H229.05V33.8324H226.881V27.3947L224.076 31.6075H224.019L221.252 27.4272V33.8231H219.11L219.152 23.9668Z" fill="white"/>
<path d="M235.441 23.8975H237.456L241.716 33.8328H239.429L238.527 31.6172H234.319L233.384 33.8281H231.187L235.441 23.8975ZM237.742 29.7035L236.423 26.5079L235.1 29.7082L237.742 29.7035Z" fill="white"/>
<path d="M243.814 23.9668H248.345C248.87 23.9338 249.397 24.0056 249.894 24.1779C250.391 24.3502 250.848 24.6195 251.239 24.9701C251.526 25.2696 251.749 25.6234 251.895 26.0105C252.041 26.3975 252.107 26.8098 252.09 27.2228V27.2507C252.122 27.922 251.931 28.5852 251.547 29.1383C251.163 29.6914 250.606 30.1036 249.963 30.3116L252.389 33.8324H249.836L247.718 30.6878H246.007V33.8417H243.824L243.814 23.9668ZM248.214 28.7602C249.28 28.7602 249.888 28.1982 249.888 27.3668V27.3389C249.888 26.41 249.233 25.9455 248.172 25.9455H246.007V28.7788L248.214 28.7602Z" fill="white"/>
<path d="M254.203 28.9275V28.8997C254.257 27.5468 254.834 26.2669 255.816 25.3273C256.797 24.3877 258.105 23.861 259.468 23.8574C260.831 23.8538 262.142 24.3736 263.129 25.308C264.115 26.2424 264.699 27.5193 264.76 28.8718V28.8997C264.706 30.2525 264.129 31.5324 263.148 32.4721C262.166 33.4117 260.858 33.9383 259.495 33.9419C258.132 33.9455 256.821 33.4258 255.835 32.4914C254.848 31.5569 254.264 30.2801 254.203 28.9275ZM262.474 28.9275V28.8997C262.488 28.4985 262.42 28.0987 262.275 27.724C262.131 27.3492 261.911 27.0072 261.631 26.7182C261.351 26.4292 261.015 26.1992 260.643 26.0417C260.271 25.8843 259.872 25.8026 259.468 25.8016C259.066 25.8 258.669 25.8792 258.3 26.0343C257.93 26.1895 257.596 26.4174 257.318 26.7043C257.04 26.9913 256.823 27.3313 256.68 27.7038C256.538 28.0763 256.473 28.4736 256.489 28.8718V28.8997C256.476 29.3011 256.543 29.7011 256.688 30.0761C256.833 30.4511 257.052 30.7934 257.332 31.0827C257.612 31.3721 257.948 31.6026 258.32 31.7606C258.692 31.9185 259.091 32.0008 259.496 32.0024C259.897 32.004 260.295 31.9247 260.665 31.7693C261.034 31.6138 261.369 31.3855 261.647 31.098C261.925 30.8106 262.142 30.47 262.284 30.097C262.426 29.7239 262.491 29.3261 262.474 28.9275Z" fill="white"/>
<path d="M266.832 28.9275V28.8996C266.819 28.222 266.945 27.5488 267.201 26.9207C267.457 26.2926 267.839 25.7226 268.323 25.2451C268.807 24.7676 269.384 24.3925 270.018 24.1425C270.652 23.8924 271.33 23.7727 272.012 23.7904C272.736 23.755 273.459 23.872 274.135 24.1337C274.81 24.3955 275.422 24.7961 275.93 25.3092L274.528 26.9024C273.86 26.2167 272.949 25.8181 271.989 25.7923C270.315 25.7923 269.109 27.1857 269.109 28.8625V28.8904C269.109 30.5811 270.287 31.9931 271.989 31.9931C273.125 31.9931 273.817 31.5286 274.598 30.8365L276 32.23C275.5 32.8102 274.873 33.2701 274.168 33.575C273.462 33.8799 272.697 34.0219 271.928 33.9904C271.256 34.001 270.588 33.8774 269.965 33.6267C269.342 33.376 268.776 33.0035 268.301 32.5313C267.825 32.059 267.45 31.4966 267.198 30.8775C266.946 30.2585 266.821 29.5953 266.832 28.9275Z" fill="white"/>
</g>
<defs>
<clipPath id="clip0_41_6129">
<rect width="276" height="34" fill="white"/>
</clipPath>
</defs>
</svg>
